<?xml version="1.0" encoding="utf-8"?>
<!-- Generator: Adobe Illustrator 23.1.0, SVG Export Plug-In . SVG Version: 6.00 Build 0)  -->
<svg version="1.1" id="Layer_1" xmlns="http://www.w3.org/2000/svg" xmlns:xlink="http://www.w3.org/1999/xlink" x="0px" y="0px"
	 viewBox="0 0 283.5 283.5" style="enable-background:new 0 0 283.5 283.5;" xml:space="preserve">
<style type="text/css">
	.st0{fill:#16A1A8;}
</style>
<g id="icon-pi">
	<path class="st0" d="M150.7,283.4c-6,0-12.1,0-18.1,0c-1-0.2-2.1-0.5-3.2-0.6c-9.3-0.8-18.4-2.4-27.9-5.3
		c14.8-20.4,17.5-44.9,23.7-66.3c2,1.5,4.4,3.1,6.7,4.9c11.8,9.5,25.3,11.7,39.8,9.2c23.4-4,39.8-17.6,51.2-37.8
		c7.2-12.7,11.2-26.6,12.9-41.1c1.3-10.9,2-21.8-0.4-32.7c-6.2-27.7-23-46.9-48.6-58.3c-21-9.4-43-10.1-65.2-5.5
		c-28.5,5.9-51,20.7-65.4,46.5c-12,21.6-14.3,44.3-5.9,67.7c4.2,11.8,11.8,21,23.6,26.1c4.4,1.9,6.9,0.7,8.2-3.8
		c1-3.7,1.8-7.4,2.9-11c0.9-2.9-0.1-5.1-1.8-7.5c-2.4-3.5-5-7.1-6.6-11c-3.9-9.5-3.8-19.4-1.9-29.3c3.8-20.7,14.7-36.5,33.1-46.8
		c16.4-9.1,33.9-10.3,52-7.1c24.3,4.4,41.9,24.8,42,49.5c0,8.7-0.6,17.5-1.9,26.1c-1.9,12.7-6.2,24.7-13.8,35.3
		c-7.4,10.3-16.8,17.1-30.2,16.8c-13.8-0.3-24-12.6-20.9-26c2.6-11.1,6.2-22,9.3-33c2.1-7.6,4.2-15.3,2.9-23.4
		c-1.6-10.3-9-16.8-19.3-16.5c-10.3,0.4-17.2,6.2-21.8,14.8c-7.1,13.5-6.6,27.6-2,41.8c0.6,1.8,0.8,4,0.4,5.8
		C100.3,183,95.9,201,91.8,219c-3,12.9-7,25.6-7.2,39c0,4.3,0,8.5,0,13.3c-1.8-0.8-2.8-1.1-3.8-1.6c-6.3-3.6-12.8-6.8-18.8-10.8
		C15.4,227.5-8.4,169.5,2.7,114.4c6.1-30,19.9-55.7,42.5-76.3C80.5,6,122-5.8,169,2.8c26.5,4.8,49.7,16.9,69.3,35.4
		c23.7,22.2,38.1,49.4,43.3,81.4c0.7,4.3,1.3,8.7,1.9,13c0,6,0,12.1,0,18.1c-0.2,0.7-0.5,1.5-0.6,2.2c-1.4,8.4-2.2,17-4.4,25.1
		c-14.4,54.6-59.2,94.7-115,103.5C159.2,282.2,155,282.8,150.7,283.4z"/>
</g>
</svg>
