<?xml version="1.0" encoding="utf-8"?>
<!-- Generator: Adobe Illustrator 23.1.0, SVG Export Plug-In . SVG Version: 6.00 Build 0)  -->
<svg version="1.1" id="Layer_1" xmlns="http://www.w3.org/2000/svg" xmlns:xlink="http://www.w3.org/1999/xlink" x="0px" y="0px"
	 viewBox="0 0 199.4 283.5" style="enable-background:new 0 0 199.4 283.5;" xml:space="preserve">
<style type="text/css">
	.st0{fill:#16A1A8;}
</style>
<g>
	<path class="st0" d="M99.5,0c50.7,0.5,90.9,36.6,98.7,83.9c3.5,21-0.8,40.9-8,60.5c-10.3,27.9-25.5,53.3-42.1,77.8
		c-13.7,20.2-28.7,39.4-44.6,57.9c-3.8,4.4-3.9,4.5-7.5,0.2C70,250,46.3,218.1,27,183.1c-11.5-20.9-21.7-42.5-25.5-66.3
		c-6.3-40.2,7.2-72.7,39.3-97.5C56,7.6,73.6,1.6,92.8,0.4C93.9,0.3,95,0.1,96.1,0C97.2,0,98.4,0,99.5,0z M99.7,64.6
		c-19.5,0-35.2,15.6-35.2,34.9c0,19.5,15.7,35.1,35.3,35.1c19.2,0,34.9-15.8,34.9-35.3C134.6,80.3,118.9,64.6,99.7,64.6z"/>
</g>
</svg>
