<?xml version="1.0" encoding="utf-8"?>
<!-- Generator: Adobe Illustrator 23.1.0, SVG Export Plug-In . SVG Version: 6.00 Build 0)  -->
<svg version="1.1" id="Layer_1" xmlns="http://www.w3.org/2000/svg" xmlns:xlink="http://www.w3.org/1999/xlink" x="0px" y="0px"
	 viewBox="0 0 283.5 228.8" style="enable-background:new 0 0 283.5 228.8;" xml:space="preserve">
<style type="text/css">
	.st0{fill:#16A1A8;}
</style>
<g>
	<path class="st0" d="M142,0c19.2,0,38.5,0,57.7,0c19.4,0,35.6,11.5,42.1,29.7c7.1,20.1,14.1,40.2,21.1,60.3c0.7,2,1.8,3.4,3.4,4.8
		c11.2,8.8,17.1,20.4,17.1,34.6c0.1,25.5,0,51.1,0,76.6c0,12.8-9.4,22.5-21.8,22.7c-12.3,0.1-22.1-9.5-22.5-22.1
		c-0.1-3.5-0.1-7,0-10.5c0-1.8-0.4-2.7-2.5-2.6c-16.9,0.7-33.7,1.5-50.6,1.9c-22.5,0.5-45,1.5-67.5,0.4c-8.9-0.4-17.8-0.3-26.7-0.7
		c-14.7-0.7-29.5-1-44.2-1.6c-2.8-0.1-3.4,0.7-3.4,3.3c0.1,4.4,0.4,8.9-0.4,13.3c-2,11.4-12,19.3-23.4,18.5
		c-11.5-0.8-20.4-10.4-20.4-22.1c0-25.9-0.1-51.7,0-77.6c0.1-13.9,5.9-25.2,16.7-33.9c2-1.6,3.3-3.4,4.1-5.8
		c6.9-19.9,13.9-39.8,20.9-59.7C48.2,11.6,64.5,0,83.7,0C103.1,0,122.5,0,142,0z M142,22.6c-19.3,0-38.7,0-58,0
		c-10.2,0-17.7,5.2-21.1,14.8c-4,11.3-8,22.6-11.9,33.9c-2.4,6.9,1.7,11.8,8.9,10.7c25.5-4.1,51.2-5.5,77-6
		c12.3-0.2,24.6,0.4,36.9,1c16.5,0.8,33,2.4,49.4,5c7.5,1.2,11.7-3.6,9.2-10.8c-3.8-11.1-7.7-22.2-11.6-33.3
		c-3.5-10-10.8-15.2-21.4-15.2C180.2,22.5,161.1,22.6,142,22.6z M141.7,141.2c10.5,0,21,0,31.5,0c6.7,0,11.6-4.5,11.6-10.4
		c0-6.1-4.7-10.7-11.4-10.7c-21.1-0.1-42.3,0-63.4,0c-2.6,0-5.1,0.6-7.2,2.2c-3.6,2.6-5.1,7.1-3.9,11.3c1.4,4.7,5.3,7.6,10.5,7.7
		C120.3,141.3,131,141.2,141.7,141.2z M65.1,136c0-8.6-7.1-15.8-15.7-16c-8.8-0.2-16,7-16,15.9c0,9,6.9,16,15.8,16
		C58.1,152.1,65.1,144.9,65.1,136z M250,136c0-8.9-7.3-16.1-16-15.9c-8.7,0.2-15.7,7.3-15.7,16c0,8.9,7.1,16,15.9,16
		C243.2,152,250.1,145,250,136z"/>
</g>
</svg>
