<?xml version="1.0" encoding="utf-8"?>
<!-- Generator: Adobe Illustrator 23.1.0, SVG Export Plug-In . SVG Version: 6.00 Build 0)  -->
<svg version="1.1" id="Layer_1" xmlns="http://www.w3.org/2000/svg" xmlns:xlink="http://www.w3.org/1999/xlink" x="0px" y="0px"
	 viewBox="0 0 283.5 223.9" style="enable-background:new 0 0 283.5 223.9;" xml:space="preserve">
<style type="text/css">
	.st0{fill:#6D247C;}
</style>
<path class="st0" d="M182.4,112.1c-4.1,8.5-7.6,15.8-11.3,23c-10.5,20.7-21.9,40.9-37.1,58.6c-10.8,12.6-22.9,23.7-39.4,28.1
	c-28.5,7.5-49.9-4.8-58-32.5c-5.1-17.6-3.3-35.4,0.5-53c1.3-6.1,2.7-12.3,4.2-19.2c-4.2,2.1-7.3,3.8-10.6,5.3
	c-10.2,4.5-21.2,2.8-26.7-4.3c-1.5-2-2.7-4.4-3.5-6.8c-1.4-4.4-0.7-7.7,3.8-10.7C23.1,88.1,37.6,71.5,49.6,53
	C57.1,41.5,63.2,29.1,70,17.1c0.9-1.6,1.6-3.3,2.6-4.8c8-13.1,15.6-13.3,27-11.5c7.9,1.3,13.4,10.9,14.1,21.7
	c1,15.3-3.3,29.6-7,44.2c-6.1,24-12.1,48.1-17,72.4c-1.9,9.6-0.9,19.8-0.7,29.8c0.1,3.9,1.9,7.9,6.2,9.3c4.5,1.5,7.9-1.1,10.8-4.2
	c13.3-14.1,24.2-30,33.7-46.7c13.9-24.5,26.9-49.5,40.3-74.3c2.3-4.3,4.5-8.6,7.3-12.5c8.7-12,25.8-11.1,33.6,1.5
	c6.2,10.1,6.9,21.5,7.3,32.9c0.5,15.3,0.6,30.6,1.2,45.9c0.2,5.7,0.7,11.5,1.8,17.1c1.9,9.3,7.4,12.3,16,8.2
	c5.3-2.5,10-6.2,14.7-9.7c3.5-2.6,6.7-5.7,10-8.6c3.4-3,5.4-2.9,8.2,0.8c3.2,4.2,4,9.1,3.3,14.2c-1.5,12.2-7.4,22.1-16.8,29.7
	c-15.1,12.3-32.6,16.5-51.7,12.3c-13.5-3-21.6-12.2-26.4-24.6c-5.1-13.1-5.9-26.8-6-40.7C182.4,117.5,182.4,115.5,182.4,112.1z"/>
</svg>
