<?xml version="1.0" encoding="utf-8"?>
<!-- Generator: Adobe Illustrator 23.1.0, SVG Export Plug-In . SVG Version: 6.00 Build 0)  -->
<svg version="1.1" id="Layer_1" xmlns="http://www.w3.org/2000/svg" xmlns:xlink="http://www.w3.org/1999/xlink" x="0px" y="0px"
	 viewBox="0 0 283.5 283.5" style="enable-background:new 0 0 283.5 283.5;" xml:space="preserve">
<style type="text/css">
	.st0{fill:#16A1A8;}
</style>
<path class="st0" d="M212.7,176.2c-1.6-3.1-4-3.8-7.2-3.8c-11.3,0.1-22.5,0.2-33.8,0c-8-0.1-16,0.4-24-0.2c-3.1-0.2-5.4,2-5.4,4.8
	c0,2.9,1.9,4.6,5.2,4.6c17.7,0,35.4,0,53.2,0c1.1,0,2.2,0,3.3,0c3.2,0,6.5,0.5,8.4-4c0.7,2.1,0.4,3.5,0.5,4.8c0,1.2,0,2.5,0,3.7
	c0,2.3,0.8,4.1,3,5.1c2.1,1,3.8,0.1,5.3-1.2c5.5-4.6,11-9.1,16.5-13.7c1.1-0.9,2.1-1.8,3.2-2.7c0.5-0.4,0.8-1.2,1.5-0.8
	c0.7,0.3,0.3,1.1,0.4,1.7c0.6,14.6,0.2,29.2,0.4,43.8c0,3.7,0,3.7,3.7,3.7c10.3,0,20.7,0,31,0c3.4,0,5.6,1.8,5.7,5.2
	c0.1,8.4,0.8,16.8-0.3,25.1c-2.3,17.7-17.3,30.8-35.1,30.9c-45.1,0.1-90.2,0.2-135.2-0.1c-7.5-0.1-14.7-3.1-21.1-7.3
	c-10.3-6.8-16.9-16.3-19.8-28.3c-0.8-3.4-1.1-6.9-1.1-10.4c0-65.2,0-130.5,0-195.7c0-14.4-8.6-25.8-22.5-29.8
	c-17.8-5.1-37,9-37.4,27.4c-0.1,6.2,0,12.4-0.1,18.6c0,2.1,0.7,2.8,2.8,2.8c13.7-0.1,27.4,0,41,0c2,0,3.9,0.2,5.3,1.9
	c1.3,1.7,1.8,3.6,0.8,5.7c-1.1,2.2-2.8,3.3-5.2,3.3c-6.8,0-13.5,0-20.3,0c-9.5,0-19,0-28.4,0c-4.8,0-6.8-1.9-6.8-6.8
	C0,56.5,0,48.4,0,40.4C0.3,18.1,18.5,0,40.8,0c52,0,104,0,156,0c13.4,0,24.8,4.9,34.1,14.6c4.9,5.1,8.1,11.1,10.3,17.8
	c0.8,2.6,0.5,5.2,0.5,7.9c0,1.7-1.4,1.6-2.5,1.8c-8.9,1.7-16.5,5.8-23,12.1c-16,15.6-17.9,40-4.8,58.3c0.8,1.1,1.3,2.2,1.3,3.6
	c0,19.6,0,39.3,0,58.9C212.8,175.4,212.8,175.8,212.7,176.2z M146.7,272.5c1.1,0.1,1.7,0.1,2.3,0.1c9.1,0,18.2,0,27.3,0
	c24,0,48,0,72,0c11.7,0,21.9-8.7,24-20.2c1-5.4,0.3-10.8,0.5-16.2c0.1-3.4,0-3.4-3.4-3.4c-34.3,0-68.7,0-103,0c-4,0-4,0-4,3.9
	c-0.1,11.3-3.4,21.4-10.6,30.1C150.3,268.6,148.6,270.4,146.7,272.5z M101.8,176.9c-0.1,8.1,6.6,15,14.6,15c8,0,15-6.7,15-14.7
	c0.1-8-6.6-14.8-14.5-14.9C108.5,162.2,101.9,168.6,101.8,176.9z M101.8,76.1c0,8.2,6.5,14.8,14.8,14.8c8.1,0,14.9-6.8,14.9-14.8
	c-0.1-8.2-6.9-14.9-15.1-14.9C108.5,61.3,101.8,68.1,101.8,76.1z M116.6,141.3c8.4,0,14.9-6.6,14.8-15c-0.1-8-6.7-14.4-14.9-14.4
	c-8.3,0-14.7,6.4-14.7,14.7C101.8,134.8,108.3,141.3,116.6,141.3z M172.2,121.8c-4.4,0-8.9,0-13.3,0c-3.9,0-7.8-0.1-11.6,0.1
	c-3.9,0.1-6.2,3.9-4.4,7c1.3,2.1,3.3,2.5,5.6,2.5c15.8,0,31.5,0,47.3,0c0.8,0,1.7,0,2.5-0.2c2.2-0.5,3.6-1.9,3.8-4.1
	c0.2-2.2-1-3.6-2.8-4.7c-1-0.6-2.1-0.5-3.2-0.5C188.2,121.8,180.2,121.8,172.2,121.8z M172.2,71.4c-1.7,0-3.4,0-5.1,0
	c-6.6,0-13.2,0-19.8,0c-3,0-4.8,1.7-4.9,4.3c-0.1,2.7,1.3,4.5,4.1,5c1.3,0.2,2.6,0.3,3.9,0.3c14.8,0,29.7,0,44.5,0
	c1.2,0,2.5-0.1,3.7-0.4c2.4-0.7,3.6-2.5,3.4-4.9c-0.2-2.7-2.1-4.3-5.4-4.3C188.5,71.4,180.3,71.4,172.2,71.4z"/>
<path class="st0" d="M248,50.7c18.6-0.5,35.7,15,35.6,35.9c-0.1,19.7-16.6,35.5-36.1,35.2c-19.4-0.3-35.3-16.2-35.2-35.9
	C212.3,66,229.1,50.1,248,50.7z M262.6,76c0-2.2-1.1-3.7-3.1-4.4c-2.2-0.7-4.4,0.1-5.6,2.3c-2.2,4.2-4.4,8.4-6.5,12.6
	c-0.6,1.2-1.2,1.5-2.2,0.5c-1.2-1.3-2.5-2.6-3.7-3.8c-2.2-2.1-5.2-2.1-7.1-0.2c-1.8,1.8-1.6,4.8,0.4,6.9c3,3,6,6.1,9.1,9
	c3.3,3.3,6.6,2.7,8.8-1.5c2.9-5.7,5.7-11.3,8.5-17C261.9,79,262.7,77.7,262.6,76z"/>
<path class="st0" d="M222.4,146.3c0-6.8,0-13.5,0-20.3c0-0.7-0.3-1.5,0.5-1.9c0.7-0.3,1.1,0.3,1.7,0.6c15.6,8.9,31.1,8.8,46.7,0
	c1.9-1.1,2.2-1,2.2,1.2c0,13.5,0,27,0,40.5c0,2.4-1,4.2-3.1,5.3c-2.1,1-4.5,0.5-6.4-1.4c-4.9-4.8-9.7-9.6-14.5-14.5
	c-1.1-1.2-1.8-1.2-3,0c-4.7,4.8-9.4,9.5-14.2,14.2c-2.2,2.2-4.5,2.9-6.7,1.8c-2.5-1.2-3.2-3.3-3.2-6
	C222.5,159.3,222.4,152.8,222.4,146.3z"/>
<path class="st0" d="M111.3,176.8c0.1-3,2.4-5.1,5.5-5c3.1,0.1,5.1,2.3,5,5.5c-0.1,3-2.5,5.2-5.5,5.1
	C113.3,182.2,111.2,179.9,111.3,176.8z"/>
<path class="st0" d="M121.9,76c0,3.1-2.1,5.3-5.2,5.3c-3.1,0-5.3-2-5.3-4.9c-0.1-3.3,2-5.5,5.2-5.5C119.6,70.8,121.8,73,121.9,76z"
	/>
<path class="st0" d="M121.9,126.4c0,3-2.2,5.4-5.2,5.5c-2.9,0.1-5.4-2.3-5.4-5.3c-0.1-3,2.4-5.5,5.5-5.5
	C119.6,121.2,121.8,123.5,121.9,126.4z"/>
</svg>
