<svg version="1" xmlns="http://www.w3.org/2000/svg" width="401.333" height="401.333" viewBox="0 0 301.000000 301.000000"><path d="M17 2.9c0 2.8.1 2.8 7.3 3.4 17.4 1.3 30.8 11.2 35.2 26.2.9 2.7 2 9.3 2.6 14.5 1.5 13.7.6 208.8-.9 215.4-4.6 19.2-17.2 29.9-37.6 32.1-6.4.7-6.6.8-6.6 3.6v2.9l132.8-.2 132.7-.3.3-147.7L283 5l-3.2.6c-14.1 2.3-20.9 5.4-31.9 14.2-8.7 6.9-20.8 18.3-61.6 58l-30.2 29.4 7.8 9.7c6.8 8.4 91.3 114.8 99.8 125.7l3.2 4.1-4.7 8.4c-8.7 15.5-22.6 27-39.9 33-7.5 2.5-8.2 2.4-5-.9 9.2-9.6 5.1-19.8-24.2-58.7-7.6-10.2-61.7-77.1-70.2-86.9-.4-.5-3.3 1.3-6.3 3.9l-5.6 4.7v-10.9l49.9-49.5c28.7-28.6 50.9-51.4 52.4-53.9 3.3-5.8 4.1-9.8 2.8-14.7-2.3-8.2-8.4-12.6-20.6-14.6-6.5-1.1-7-1.4-7.3-3.9l-.3-2.7H17v2.9z"/></svg>