<svg version="1" xmlns="http://www.w3.org/2000/svg" width="933.333" height="933.333" viewBox="0 0 700.000000 700.000000"><path d="M417 36.8c-19.1 5.4-36.6 20.6-53.5 46.5-12.4 19.1-20.2 39-29 74.1l-5.2 20.9-1.1-4.4c-4.4-17.5-18.9-56.7-28.3-76.8C284.4 64.1 266 47 246 47c-19.6 0-28.8 19.2-25.1 52.1 4.5 39.1 18.9 83.9 51.1 158.9 29.4 68.5 30 70.6 30.7 96 .4 15.3.2 21.5-1.7 36-1.2 9.6-2.3 17.6-2.5 17.8-.2.2-1.8-4.1-3.6-9.5-6.7-20.2-21.9-52.6-31.5-66.9-6.4-9.6-15.5-19-23.8-24.6-27.3-18.7-61.8-5.9-70.1 25.9-3.2 12.1-1.5 32.9 4.1 49.5 8 24.2 29.4 52.5 54 71.6l8.1 6.3-5.3 22.7c-17.1 73.9-31.7 120.9-44.5 142.4-5.7 9.7-17 21.1-24.4 24.4-7.3 3.3-16.4 3.1-23.8-.6-22.4-11.3-43.3-56.5-45.3-98-1.1-20.6 2.3-32.8 10.9-40.7 8.9-7.9 21.8-10.1 32.4-5.4 5.8 2.6 14 10.6 17.1 16.7 5 10.1 6 28.4 2.2 40.7-1.2 3.8-1.9 7.5-1.6 8.3.9 2.2 5.4 1.7 7-.9 4.8-7.4 6.4-27.5 3.2-39.6-6.7-25.8-29.8-40.2-52.8-33.1-13.8 4.2-22.8 15.2-25.9 31.4-1.5 7.8-1.1 29 .6 39.1 6 35 19.2 64.2 37 82 12.3 12.4 24.9 17.1 43 16.2 18-.9 30.4-6.7 44.6-20.8 24-23.7 38.1-56.8 60.4-141.9 3.1-11.8 7.4-27.8 9.6-35.5 2.1-7.6 3.5-14.2 3.1-14.6-.4-.4-2.5-1.2-4.7-1.9-8.8-2.7-19.7-9.4-27.6-16.8-25.3-23.8-39.6-67-33.5-101.3 3.9-21.7 13.1-24.6 28.6-8.9 10.1 10.2 17.6 23.4 29.9 52.3 12.4 29.4 18 47.9 18.1 59.7 0 5.9-5 38.6-10 64.5-3.5 18.4-3.7 24.4-1.1 30 3.1 6.9 9.5 11.3 34.2 23.7 12.9 6.4 36 18.5 51.4 26.9 61.4 33.2 85.8 43.5 116.5 49 14.9 2.7 34.2 2.3 46.8-1 20.7-5.4 38.2-16.1 55.3-33.8 21.3-21.9 31.5-51 28.1-80.6-1.5-13.5-3.4-20.6-8.1-30.2-6.8-13.8-17.7-23.9-30-28-8-2.6-20.7-1.8-28.6 2-11.4 5.4-21.2 17.9-26.5 33.6-2.6 8-2.4 11.3.8 11.7 3.1.5 5.9-2.2 6.7-6.2 1.3-6.4 8.3-19.1 13.1-23.9 12.8-12.7 30.5-13.1 44.4-.9 22.4 19.6 26.8 60.9 10.1 94.1-13.8 27.3-47.8 45.7-77.6 42.1-22.2-2.7-40.7-10.6-88-37.5-32.3-18.5-64-34.3-83.2-41.6-3.5-1.3-6.3-3-6.3-3.7 0-.8 1.8-9.3 3.9-19 13.5-60.4 20.2-108.1 25.1-178.7.6-8.8 1.3-16.9 1.5-18 .2-1.2 7.2-7.4 16.2-14.5 25.2-19.9 46.2-42 61.2-64.4 8.3-12.3 19.3-34.8 23.9-48.7 7.4-22.9 10.9-47.2 9.8-69.7-1.8-40.5-12.2-65-31.4-74.4-5.8-2.9-7.4-3.2-17.6-3.5-8.5-.2-12.6.1-17.6 1.5z"/></svg>