<?xml version="1.0" encoding="utf-8"?>
<!-- Generator: Adobe Illustrator 22.0.0, SVG Export Plug-In . SVG Version: 6.00 Build 0)  -->
<svg version="1.1" xmlns="http://www.w3.org/2000/svg" xmlns:xlink="http://www.w3.org/1999/xlink" x="0px" y="0px"
	 viewBox="0 0 283.5 283.5" style="enable-background:new 0 0 283.5 283.5;" xml:space="preserve">
<g id="icon-li">
	<path class="st12" fill="#53917E" d="M141.5,7.1c33.8,0,67.6,0,101.4,0c19.5,0,33.6,14.1,33.6,33.5c0,67.5,0,134.9,0,202.4
		c0,19.2-14.2,33.4-33.4,33.4c-67.6,0-135.1,0-202.7,0c-18.8,0-33.3-14-33.3-32.8C7,175.6,6.9,107.7,7.1,39.8
		C7.1,21,21.6,7.1,40.5,7.1C74.2,7.1,107.8,7.1,141.5,7.1z M116.9,112.1c0,39.8,0,79.3,0,118.7c11.7,0,23.2,0,34.9,0
		c0-1.6,0-2.9,0-4.2c0-19.2-0.1-38.4,0.1-57.5c0-4.2,0.5-8.5,1.7-12.5c2.8-9.9,11-15.3,21.6-14.8c10,0.5,16.1,5.7,18.4,16.2
		c0.5,2.2,0.8,4.4,0.8,6.6c0.1,20.7,0.1,41.5,0.2,62.2c0,1.3,0,2.6,0,4.1c12.3,0,24.3,0,36.4,0c0.1-0.8,0.2-1.5,0.2-2.1
		c0-25.3,0.1-50.6-0.1-75.9c-0.1-10.2-2.4-19.9-8.5-28.4c-15.6-21.5-51-21.6-67.9-0.2c-0.7,0.9-1.4,1.8-2.1,2.7
		c-0.3-0.1-0.6-0.2-0.8-0.3c0-4.8,0-9.6,0-14.5C139.8,112.1,128.5,112.1,116.9,112.1z M92.4,231c0-39.8,0-79.3,0-118.8
		c-12.3,0-24.2,0-36.2,0c0,39.7,0,79.2,0,118.8C68.3,231,80.2,231,92.4,231z M52.5,74.2c0,12.1,9.7,22,21.8,21.9
		c11.9,0,21.6-9.8,21.7-21.8c0.1-12.2-9.6-22-21.7-22C62.1,52.3,52.5,62,52.5,74.2z"/>
</g>
</svg>
