<?xml version="1.0" encoding="utf-8"?>
<!-- Generator: Adobe Illustrator 22.0.0, SVG Export Plug-In . SVG Version: 6.00 Build 0)  -->
<svg version="1.1" xmlns="http://www.w3.org/2000/svg" xmlns:xlink="http://www.w3.org/1999/xlink" x="0px" y="0px"
	 viewBox="0 0 283.5 283.5" style="enable-background:new 0 0 283.5 283.5;" xml:space="preserve">
<g id="icon-fb">
	<path class="st12" fill="rgb(100, 178, 154)" d="M276.4,141.9c0,39.7,0,79.3,0,119c0,9.3-6.1,15.4-15.4,15.4c-21.6,0-43.2,0-64.8,0c-2.9,0-2.9,0-2.9-2.7
		c0-32.8,0-65.6,0-98.3c0-2.8,0-2.8,2.8-2.8c10,0,20,0,30,0c1.7,0,2.3-0.5,2.6-2.3c1.5-12.3,3.1-24.6,4.8-36.9
		c0.2-1.8-0.2-2.3-2-2.3c-11.8,0.1-23.6,0-35.5,0c-2.6,0-2.7,0-2.6-2.6c0-9,0-18,0.2-27c0.1-2.2,0.6-4.6,1.4-6.7
		c2.5-6.3,7.9-8.3,14.1-8.6c7.7-0.4,15.5-0.2,23.2-0.3c2.8,0,2.8,0,2.8-2.8c0-10.4,0-20.9,0-31.3c0-2.9,0-3-2.9-3.1
		c-10.8-0.5-21.6-1.3-32.5-1.1c-13.5,0.2-25.7,4.6-35.3,14.6c-7.4,7.7-11.4,17.1-12.8,27.6c-0.7,5-0.8,10.2-0.9,15.3
		c-0.1,7.9-0.1,15.9,0,23.8c0,1.9-0.6,2.3-2.4,2.3c-10.1-0.1-20.2,0-30.3-0.1c-2,0-2.6,0.5-2.6,2.6c0.1,12.2,0.1,24.3,0,36.5
		c0,1.9,0.5,2.5,2.5,2.5c10-0.1,20.1,0,30.1,0c2.6,0,2.6,0,2.6,2.5c0,33,0,65.9,0,98.9c0,1.9-0.5,2.5-2.4,2.5
		c-42.2-0.1-84.3,0-126.5,0c-8.4,0-14.7-6.3-14.7-14.7c0-79.9,0-159.9,0-239.8c0-8.4,6.3-14.7,14.7-14.7c79.9,0,159.9,0,239.8,0
		c8.5,0,14.8,6.3,14.8,14.8C276.4,61.9,276.4,101.9,276.4,141.9z"/>
</g>
</svg>