<?xml version="1.0" encoding="utf-8"?>
<!-- Generator: Adobe Illustrator 22.0.0, SVG Export Plug-In . SVG Version: 6.00 Build 0)  -->
<svg version="1.1" xmlns="http://www.w3.org/2000/svg" xmlns:xlink="http://www.w3.org/1999/xlink" x="0px" y="0px"
	 viewBox="0 0 283.5 283.5" style="enable-background:new 0 0 283.5 283.5;" xml:space="preserve">
<g id="icon-gh">
	<g>
		<path class="st12" fill="rgb(100, 178, 154)" d="M167.9,207.5c6.1-1.2,11.9-2.1,17.5-3.5c16.9-4.2,31.1-12.5,39-28.8c8-16.5,9.8-33.9,5.9-51.8
			c-1.7-8-5.7-15.1-11-21.3c-1.3-1.5-1.4-2.7-0.9-4.5c3.4-11,2.3-21.9-1.4-32.7c-0.6-1.8-1.7-2.7-3.5-2.4
			c-5.3,1.1-10.9,1.8-15.9,3.8c-6.3,2.5-12.1,6.3-18.2,9.4c-1.3,0.7-3.2,1.2-4.6,0.8c-22.1-5.4-44.2-5.4-66.3,0
			c-1.4,0.3-3.3-0.1-4.6-0.9c-9.3-5.7-18.8-11-29.7-12.9c-0.1,0-0.2-0.1-0.3-0.1c-6.1-1-6.8-0.6-8.5,5.3c-2.9,10-3.4,20.1-0.3,30.2
			c0.3,0.9,0,2.5-0.6,3.2c-12.7,14.7-15.1,31.9-12.3,50.3c1,6.4,2.5,12.8,4.8,18.8c7.1,18.4,21.6,28.3,40,33.2c5,1.3,10.1,2,15.2,3
			c0.9,0.2,1.9,0.4,3.3,0.7c-4.8,5.1-7.2,10.9-8.5,17.3c-0.1,0.8-1.1,1.7-1.9,2c-14.9,5.8-29.7,3.7-39.2-11.9
			c-4.5-7.4-10.6-12.8-19.3-14.6c-1.9-0.4-4-0.4-6-0.1c-3.6,0.6-4.1,2.5-1.6,5c0.9,1,2,1.9,3.1,2.6c7.6,4.5,12.4,11.3,15.6,19.2
			c5.3,13.1,15.6,19,29,19.9c6.3,0.4,12.7-0.4,19.6-0.7c0,1.8,0,4.1,0,6.4c0,5.8,0.1,11.7,0.1,17.5c0,6.9-4.1,10-10.8,7.8
			c-20.7-7-39-18.2-54.4-33.8c-29.2-29.6-43.4-65.4-41-106.9C4,72.2,50.6,19.9,115,7.3c68-13.3,136.4,25.1,160,90.2
			c26.9,74.2-12.3,154.8-87,180.6c-6.9,2.4-11-0.6-11-7.8c0-12.1,0.1-24.2,0.1-36.4C177,224.2,175.1,215.1,167.9,207.5z"/>
		<path class="st12" fill="rgb(100, 178, 154)" d="M91.8,231.4c1.3,1.1,2.1,1.9,2.9,2.6c-1.1,0.7-2.1,1.9-3.2,2.1c-0.8,0.1-1.7-1.2-2.6-1.9
			C89.7,233.3,90.6,232.5,91.8,231.4z"/>
		<path class="st12" fill="rgb(100, 178, 154)" d="M74.2,227.4c-1.7,0.9-2.8,1.8-3.2,1.6c-1.2-0.8-2.1-1.9-3.1-2.9c0.6-0.6,1.5-1.8,1.8-1.7
			C71,225,72.2,226,74.2,227.4z"/>
		<path class="st12" fill="rgb(100, 178, 154)" d="M80.3,235.2c-1.2-1.3-2-2.3-2.9-3.2c0.8-0.6,1.9-1.7,2.4-1.5c1.2,0.5,2.2,1.6,3.3,2.5
			C82.3,233.6,81.6,234.2,80.3,235.2z"/>
		<path class="st12" fill="rgb(100, 178, 154)" d="M105.8,233.2c-1.2,0.6-2.4,1.5-3.6,1.6c-0.8,0-1.7-1.2-2.5-1.9c1.1-0.7,2.2-1.7,3.5-1.9
			c0.7-0.2,1.7,0.8,2.6,1.3C105.7,232.5,105.8,232.9,105.8,233.2z"/>
		<path class="st12" fill="rgb(100, 178, 154)" d="M62.7,215.1c1.3,1.8,2.2,2.8,2.7,4c0.2,0.4-0.7,1.2-1.1,1.9c-1-1-2.1-1.9-2.9-3
			C61.1,217.7,61.9,216.7,62.7,215.1z"/>
		<path class="st12" fill="rgb(100, 178, 154)" d="M57.4,208.1c1,1.6,1.7,2.6,2.2,3.7c0,0.1-1.4,1.1-1.6,1c-0.9-0.7-1.6-1.6-2.2-2.5
			C55.7,210.1,56.6,209.3,57.4,208.1z"/>
	</g>
</g>
</svg>
